<svg width="518" height="332" viewBox="0 0 518 332" fill="none" xmlns="http://www.w3.org/2000/svg">
<path d="M254.547 3.58501C254.547 13.7739 251.025 25.6608 245.302 34.5918C241.213 40.9441 232.597 49.6235 216.999 63.02C203.037 75.0956 198.068 80.8819 193.037 90.8821C185.049 106.857 182.973 124.216 186.999 141.512C193.225 167.927 215.049 189.626 242.597 196.607C248.635 198.179 263.478 198.494 270.648 197.173C297.252 192.393 318.447 174.909 327.819 150.003C335.24 130.254 333.542 106.606 323.353 88.6179C320.963 84.404 316.246 78.4919 315.554 78.9322C315.303 79.058 314.925 82.1398 314.737 85.6619C314.171 96.9199 311.026 106.291 304.548 116.04C301.403 120.82 294.045 127.99 289.642 130.694C282.409 135.034 274.547 136.417 269.83 134.153C267 132.832 263.478 129.247 262.346 126.48C261.277 123.901 261.214 118.178 262.22 115.159C263.289 112.077 266.686 106.668 270.208 102.517C279.139 92.0142 285.428 81.4479 287.504 73.4604C292.661 53.3972 288.195 35.1579 273.793 17.2959C269.264 11.6983 256.685 4.0511e-05 255.113 4.0511e-05C254.799 4.0511e-05 254.547 1.63529 254.547 3.58501Z" fill="url(#paint0_linear_4_17)"/>
<path d="M22.464 296L22.56 275.36H28.032C35.328 275.36 38.112 278.528 41.088 284.48L46.848 296H62.016L55.776 283.232C52.416 276.512 50.016 272.096 45.888 269.792C54.144 267.584 59.328 260.768 59.328 251.936C59.328 238.208 48.096 231.392 33.504 231.392H8.64V296H22.464ZM33.696 244.352C40.032 244.352 44.928 247.04 44.928 253.376C44.928 259.424 40.128 262.88 33.504 262.88H22.56L22.656 244.352H33.696ZM91.0613 297.248C101.141 297.248 109.013 292.352 113.141 283.808L102.677 278.528C100.469 282.944 96.1493 285.44 90.9653 285.44C84.1493 285.44 79.2533 281.216 78.2933 274.88H113.621V270.848C113.621 257.888 104.885 246.752 89.8133 246.752C75.1253 246.752 65.1413 258.08 65.1413 271.808C65.1413 286.976 76.2773 297.248 91.0613 297.248ZM78.8693 267.296C79.8293 262.496 83.7653 258.656 89.7173 258.656C95.4773 258.656 99.5093 262.4 100.085 267.296H78.8693ZM137.236 317.888V292.928C140.788 295.616 145.3 297.344 150.1 297.344C164.884 297.344 175.06 286.976 175.06 272.096C175.06 258.464 164.02 247.136 149.332 247.136C134.548 247.136 123.604 257.792 123.604 272.096V317.888H137.236ZM149.332 284.48C142.324 284.48 137.236 278.912 137.236 272.192C137.236 265.472 142.324 260 149.332 260C156.34 260 161.428 265.472 161.428 272.192C161.428 278.912 156.34 284.48 149.332 284.48ZM205.286 297.248C211.814 297.248 216.998 294.656 220.358 290.432V296H233.318V272.096C233.318 257.792 222.374 247.04 207.494 247.04C192.902 247.04 181.766 258.464 181.766 272.096C181.766 285.92 191.462 297.248 205.286 297.248ZM207.494 284.48C200.486 284.48 195.398 278.912 195.398 272.192C195.398 265.472 200.486 259.904 207.494 259.904C214.502 259.904 219.686 265.472 219.686 272.192C219.686 278.912 214.502 284.48 207.494 284.48ZM253.465 241.376C258.073 241.376 261.817 237.632 261.817 232.928C261.817 228.32 258.073 224.48 253.465 224.48C248.857 224.48 245.017 228.32 245.017 232.928C245.017 237.632 248.857 241.376 253.465 241.376ZM246.649 248.48V296H260.281V248.48H246.649ZM287.236 296V269.216C287.236 263.552 290.5 260.096 295.876 260.096C298.372 260.096 301.156 260.768 303.46 262.112V248.864C301.06 247.808 297.7 247.232 294.628 247.232C280.516 247.232 273.604 256.544 273.604 268.736V296H287.236ZM323.468 296V248.192L349.004 292.256C351.116 295.808 354.668 297.248 358.796 297.248C363.884 297.248 368.588 293.6 368.588 287.168V231.392H355.34V278.912L329.804 235.136C327.692 231.584 324.332 230.048 320.108 230.048C314.828 230.048 310.124 233.792 310.124 240.224V296H323.468ZM405.776 297.248C420.368 297.248 431.6 285.92 431.6 272.096C431.6 258.464 420.464 247.04 405.776 247.04C391.28 247.04 380.048 258.368 380.048 272.096C380.048 285.92 391.184 297.248 405.776 297.248ZM405.776 284.48C398.768 284.48 393.68 278.912 393.68 272.192C393.68 265.472 398.768 259.904 405.776 259.904C412.784 259.904 417.968 265.472 417.968 272.192C417.968 278.912 412.784 284.48 405.776 284.48ZM457.103 297.344C462.671 297.344 466.895 293.984 468.527 287.264L475.631 258.944C475.631 258.944 475.535 258.848 475.727 258.848C476.015 258.848 475.919 258.944 475.919 258.944L483.023 287.264C484.75 293.984 488.879 297.344 494.447 297.344C499.631 297.344 505.103 294.176 506.639 287.264L515.375 248.48H502.799L494.831 284.672C494.831 284.864 494.831 284.96 494.543 284.96C494.255 284.96 494.255 284.864 494.255 284.768L487.247 257.024C485.615 250.4 481.775 247.04 475.823 247.04C469.967 247.04 466.031 250.4 464.207 257.216L457.199 284.768C457.199 284.768 457.295 284.864 457.007 284.864C456.623 284.864 456.719 284.864 456.719 284.672L448.463 248.48H435.695L444.815 287.264C446.447 294.08 451.823 297.344 457.103 297.344Z" fill="white"/>
<defs>
<linearGradient id="paint0_linear_4_17" x1="258.696" y1="198" x2="258.696" y2="3.05176e-05" gradientUnits="userSpaceOnUse">
<stop stop-color="#B722FF"/>
<stop offset="1" stop-color="#22D4FE" stop-opacity="0.6"/>
</linearGradient>
</defs>
</svg>
