<svg width="148" height="198" viewBox="0 0 148 198" fill="none" xmlns="http://www.w3.org/2000/svg">
<path d="M69.547 3.58501C69.547 13.7739 66.0249 25.6608 60.3016 34.5918C56.2134 40.9441 47.5969 49.6235 31.9992 63.02C18.0367 75.0956 13.0681 80.8819 8.03653 90.8821C0.0489724 106.857 -2.02653 124.216 1.99869 141.512C8.22521 167.927 30.0495 189.626 57.5971 196.607C63.6349 198.179 78.478 198.494 85.6479 197.173C112.252 192.393 133.447 174.909 142.819 150.003C150.24 130.254 148.542 106.606 138.353 88.6179C135.963 84.404 131.246 78.4919 130.554 78.9322C130.303 79.058 129.925 82.1398 129.737 85.6619C129.171 96.9199 126.026 106.291 119.548 116.04C116.403 120.82 109.045 127.99 104.642 130.694C97.4091 135.034 89.5473 136.417 84.8303 134.153C82 132.832 78.478 129.247 77.3459 126.48C76.2767 123.901 76.2138 118.178 77.2201 115.159C78.2893 112.077 81.6856 106.668 85.2076 102.517C94.1386 92.0142 100.428 81.4479 102.504 73.4604C107.661 53.3972 103.195 35.1579 88.7926 17.2959C84.2642 11.6983 71.6854 4.0511e-05 70.113 4.0511e-05C69.7986 4.0511e-05 69.547 1.63529 69.547 3.58501Z" fill="url(#paint0_linear_4_5)"/>
<defs>
<linearGradient id="paint0_linear_4_5" x1="73.6958" y1="198" x2="73.6958" y2="3.05176e-05" gradientUnits="userSpaceOnUse">
<stop stop-color="#B722FF"/>
<stop offset="1" stop-color="#22D4FE" stop-opacity="0.6"/>
</linearGradient>
</defs>
</svg>
