<svg width="403" height="401" viewBox="0 0 403 401" fill="none" xmlns="http://www.w3.org/2000/svg">
<path d="M56.0349 364.158C59.7172 365.452 63.6707 365.776 67.5147 365.099C71.3587 364.422 74.9635 362.766 77.9819 360.292C85.6689 353.84 88.0819 343.211 90.0399 333.368L95.8399 304.256L83.6969 312.618C74.9639 318.631 66.0349 324.837 59.9879 333.547C53.9409 342.257 51.3019 354.147 56.1599 363.571" fill="#E6E6E6"/>
<path d="M57.0729 399.404C55.8439 390.451 54.5799 381.384 55.4419 372.335C56.2079 364.299 58.6589 356.45 63.6509 350.014C66.3004 346.604 69.5244 343.682 73.1779 341.381C74.1309 340.781 75.0069 342.29 74.0589 342.888C67.7376 346.883 62.8483 352.782 60.0959 359.735C57.0559 367.467 56.5679 375.896 57.0959 384.109C57.4129 389.076 58.0839 394.009 58.7609 398.939C58.8154 399.162 58.7826 399.397 58.6692 399.597C58.5558 399.796 58.3704 399.945 58.1509 400.013C57.9276 400.073 57.6896 400.043 57.4885 399.928C57.2874 399.814 57.1395 399.625 57.0769 399.403L57.0729 399.404Z" fill="#F2F2F2"/>
<path d="M300.601 206.518C299.709 206.942 298.737 207.17 297.75 207.188L206.143 209.703C202.33 209.786 198.641 208.35 195.886 205.713C193.131 203.076 191.537 199.452 191.454 195.639C191.371 191.826 192.806 188.137 195.444 185.382C198.081 182.627 201.705 181.033 205.518 180.95L297.125 178.437C298.981 178.398 300.775 179.097 302.116 180.381C303.457 181.664 304.233 183.427 304.276 185.282L304.596 200.038C304.625 201.388 304.263 202.717 303.554 203.867C302.845 205.016 301.82 205.937 300.601 206.518Z" fill="#6C63FF"/>
<path d="M183.058 399.59H168.299C166.443 399.588 164.664 398.85 163.351 397.538C162.039 396.225 161.301 394.446 161.299 392.59V269.576C161.301 267.72 162.039 265.941 163.351 264.629C164.664 263.316 166.443 262.578 168.299 262.576H183.058C184.914 262.578 186.694 263.316 188.006 264.629C189.318 265.941 190.056 267.72 190.058 269.576V392.59C190.056 394.446 189.318 396.225 188.006 397.538C186.694 398.85 184.914 399.588 183.058 399.59Z" fill="#6C63FF"/>
<path d="M222.251 399.59H207.491C205.635 399.588 203.856 398.85 202.544 397.538C201.231 396.225 200.493 394.446 200.491 392.59V269.576C200.493 267.72 201.231 265.941 202.544 264.629C203.856 263.316 205.635 262.578 207.491 262.576H222.251C224.107 262.578 225.886 263.316 227.198 264.629C228.51 265.941 229.249 267.72 229.251 269.576V392.59C229.249 394.446 228.51 396.225 227.198 397.538C225.886 398.85 224.107 399.588 222.251 399.59Z" fill="#6C63FF"/>
<path d="M196.716 134.697C224.882 134.697 247.716 111.864 247.716 83.6972C247.716 55.5307 224.882 32.6972 196.716 32.6972C168.549 32.6972 145.716 55.5307 145.716 83.6972C145.716 111.864 168.549 134.697 196.716 134.697Z" fill="#6C63FF"/>
<path d="M214.027 306.197H177.338C169.713 306.226 162.217 304.24 155.607 300.44C148.996 296.64 143.507 291.162 139.695 284.559C135.883 277.956 133.883 270.463 133.897 262.839C133.912 255.214 135.94 247.729 139.777 241.141L191.087 152.27C191.657 151.282 192.478 150.462 193.466 149.891C194.454 149.321 195.575 149.02 196.716 149.02C197.857 149.02 198.978 149.321 199.966 149.891C200.954 150.462 201.774 151.282 202.345 152.27L252.621 239.351C256.532 246.126 258.591 253.81 258.591 261.633C258.591 269.456 256.532 277.14 252.621 283.915C248.709 290.69 243.084 296.315 236.309 300.227C229.534 304.138 221.85 306.197 214.027 306.197Z" fill="#2F2E41"/>
<path d="M208.753 105.106C212.059 105.014 216.174 104.9 219.343 102.584C220.287 101.866 221.063 100.951 221.615 99.9019C222.168 98.8529 222.485 97.6957 222.543 96.5114C222.601 95.6697 222.463 94.8262 222.14 94.0467C221.817 93.2673 221.318 92.573 220.683 92.0182C219.027 90.6193 216.61 90.2912 214.005 91.0568L216.704 71.3312L214.723 71.0597L211.549 94.2497L213.204 93.4904C215.122 92.6105 217.756 92.1628 219.392 93.5456C219.794 93.9071 220.107 94.3564 220.307 94.8586C220.507 95.3608 220.588 95.9023 220.545 96.4411C220.496 97.3225 220.258 98.1832 219.847 98.9645C219.437 99.7458 218.862 100.429 218.163 100.969C215.697 102.771 212.417 103.003 208.698 103.107L208.753 105.106Z" fill="#2F2E41"/>
<path d="M237.275 73.0324H226.503V75.0324H237.275V73.0324Z" fill="#2F2E41"/>
<path d="M203.275 73.0324H192.503V75.0324H203.275V73.0324Z" fill="#2F2E41"/>
<path d="M184.72 294.791C184.296 293.899 184.068 292.927 184.049 291.94L181.535 200.333C181.452 196.52 182.887 192.83 185.525 190.076C188.162 187.321 191.786 185.727 195.599 185.644C199.411 185.561 203.101 186.996 205.856 189.634C208.61 192.271 210.204 195.895 210.287 199.708L212.801 291.315C212.84 293.17 212.14 294.965 210.857 296.306C209.574 297.646 207.811 298.423 205.956 298.466L191.2 298.786C189.85 298.814 188.52 298.452 187.371 297.744C186.221 297.035 185.301 296.009 184.72 294.791Z" fill="#6C63FF"/>
<path d="M191.984 45.9976C198.18 54.101 208.017 59.5369 218.413 58.2498C228.314 57.0242 236.481 50.1237 238.53 40.2443C239.425 35.5735 239.183 30.7561 237.827 26.1981C236.47 21.64 234.037 17.4749 230.734 14.0538C223.726 6.68351 213.697 2.71884 203.77 1.35928C184.966 -1.21609 165.653 5.40781 151.435 17.7616C144.295 23.9033 138.596 31.5428 134.743 40.1367C131.031 48.6671 129.263 57.9164 129.568 67.2144C130.114 85.5894 138.163 103.929 152.05 116.115C153.775 117.624 155.581 119.038 157.459 120.351C159.042 121.462 160.543 118.862 158.973 117.761C144.751 107.784 135.679 91.5496 133.189 74.4921C131.885 65.8976 132.467 57.1223 134.893 48.775C137.32 40.4278 141.534 32.7084 147.242 26.1524C158.726 13.0944 175.565 4.60713 193.005 3.84667C210.554 3.08146 232.484 10.9161 235.768 30.451C237.24 39.2068 233.967 48.4103 225.943 52.7938C217.353 57.4871 206.819 55.5556 199.437 49.4944C197.629 48.0161 195.998 46.3347 194.574 44.4835C193.417 42.9703 190.81 44.463 191.984 45.9976Z" fill="#2F2E41"/>
<path d="M351.59 183.185C333.63 183.185 319.018 167.664 319.018 148.584C319.018 129.506 333.63 113.984 351.59 113.984C369.55 113.984 384.162 129.506 384.162 148.584C384.162 167.664 369.55 183.185 351.59 183.185ZM351.59 122.727C338.45 122.727 327.761 134.326 327.761 148.584C327.761 162.842 338.45 174.442 351.59 174.442C364.729 174.442 375.419 162.842 375.419 148.584C375.419 134.326 364.729 122.727 351.59 122.727Z" fill="#6C63FF"/>
<path d="M382.434 243.484H320.746C315.306 243.478 310.09 241.314 306.244 237.468C302.397 233.621 300.233 228.406 300.227 222.966V162.456C300.231 158.732 301.713 155.161 304.346 152.527C306.98 149.894 310.55 148.413 314.274 148.408H388.905C392.63 148.413 396.2 149.894 398.834 152.527C401.467 155.161 402.949 158.732 402.953 162.456V222.966C402.947 228.406 400.783 233.621 396.936 237.468C393.09 241.314 387.874 243.478 382.434 243.484Z" fill="#3F3D56"/>
<path d="M363.611 182.832C363.613 180.695 363.045 178.597 361.965 176.752C360.886 174.908 359.335 173.385 357.471 172.339C355.608 171.294 353.499 170.764 351.362 170.804C349.226 170.845 347.139 171.454 345.316 172.569C343.493 173.684 342.001 175.265 340.992 177.149C339.983 179.033 339.495 181.152 339.578 183.287C339.66 185.422 340.31 187.497 341.461 189.298C342.612 191.098 344.222 192.559 346.126 193.531V212.339H357.054V193.531C359.027 192.525 360.683 190.994 361.841 189.106C362.998 187.218 363.61 185.047 363.611 182.832Z" fill="white"/>
<path d="M382 400.984H1C0.734784 400.984 0.480429 400.879 0.292892 400.691C0.105356 400.504 0 400.249 0 399.984C0 399.719 0.105356 399.465 0.292892 399.277C0.480429 399.09 0.734784 398.984 1 398.984H382C382.265 398.984 382.52 399.09 382.707 399.277C382.895 399.465 383 399.719 383 399.984C383 400.249 382.895 400.504 382.707 400.691C382.52 400.879 382.265 400.984 382 400.984Z" fill="#3F3D56"/>
</svg>
