<svg width="512" height="512" viewBox="0 0 512 512" fill="none" xmlns="http://www.w3.org/2000/svg">
<path d="M421.366 7.95001V188.157C421.366 205.692 407.1 219.958 389.565 219.958H126.675C74.069 219.958 31.271 262.756 31.271 315.362V501.93H92.753V315.362C92.753 297.827 107.019 283.561 124.554 283.561H387.444C440.05 283.561 482.848 240.763 482.848 188.157V7.95001H421.366Z" fill="#6C63FF"/>
<path d="M226.319 200.878H200.878V302.642H226.319V200.878Z" fill="#EB6836"/>
<path d="M319.602 200.878H294.161V302.642H319.602V200.878Z" fill="#EB6836"/>
<path d="M226.319 200.878H200.878V222.079H226.319V200.878Z" fill="#FD9D7E"/>
<path d="M319.602 200.878H294.161V222.079H319.602V200.878Z" fill="#FD9D7E"/>
<path d="M226.319 281.441H200.878V302.642H226.319V281.441Z" fill="#FD9D7E"/>
<path d="M319.602 281.441H294.161V302.642H319.602V281.441Z" fill="#FD9D7E"/>
<path d="M497.69 39.752H404.406V65.193H497.69V39.752Z" fill="#EB6836"/>
<path d="M107.595 444.687H14.311V470.128H107.595V444.687Z" fill="#EB6836"/>
<path d="M107.594 444.687H86.393V470.128H107.594V444.687Z" fill="#FD9D7E"/>
<path d="M35.512 444.687H14.311V470.128H35.512V444.687Z" fill="#FD9D7E"/>
<path d="M497.69 39.752H476.489V65.193H497.69V39.752Z" fill="#FD9D7E"/>
<path d="M425.607 39.752H404.406V65.193H425.607V39.752Z" fill="#FD9D7E"/>
<path d="M304.762 169.077C316.471 169.077 325.963 159.585 325.963 147.876C325.963 136.167 316.471 126.675 304.762 126.675C293.053 126.675 283.561 136.167 283.561 147.876C283.561 159.585 293.053 169.077 304.762 169.077Z" fill="#EB6836"/>
<path d="M215.718 169.077C227.427 169.077 236.919 159.585 236.919 147.876C236.919 136.167 227.427 126.675 215.718 126.675C204.009 126.675 194.517 136.167 194.517 147.876C194.517 159.585 204.009 169.077 215.718 169.077Z" fill="#EB6836"/>
<path d="M198.758 442.567C198.758 408.611 260.24 323.842 260.24 323.842C260.24 323.842 321.722 408.61 321.722 442.567C321.722 476.524 294.196 504.049 260.24 504.049C226.284 504.049 198.758 476.524 198.758 442.567Z" fill="#62C9CC"/>
<path d="M281.441 487.089C247.486 487.089 219.959 459.562 219.959 425.607C219.959 403.133 246.889 358.405 265.104 330.723C262.073 326.37 260.241 323.843 260.241 323.843C260.241 323.843 198.759 408.612 198.759 442.568C198.759 476.524 226.286 504.05 260.241 504.05C279.676 504.05 296.993 495.023 308.26 480.943C300.154 484.878 291.057 487.089 281.441 487.089Z" fill="#50A9A9"/>
<path d="M268.72 484.969C279.258 484.969 287.801 476.426 287.801 465.888C287.801 455.35 279.258 446.807 268.72 446.807C258.182 446.807 249.639 455.35 249.639 465.888C249.639 476.426 258.182 484.969 268.72 484.969Z" fill="#D4F2E8"/>
<path d="M285.681 436.207C292.706 436.207 298.401 430.512 298.401 423.487C298.401 416.462 292.706 410.767 285.681 410.767C278.656 410.767 272.961 416.462 272.961 423.487C272.961 430.512 278.656 436.207 285.681 436.207Z" fill="#D4F2E8"/>
<path d="M497.689 31.801H490.799V7.95C490.799 3.559 487.24 0 482.849 0H421.367C416.975 0 413.417 3.56 413.417 7.95V31.801H404.407C400.015 31.801 396.457 35.361 396.457 39.751V65.192C396.457 69.583 400.016 73.142 404.407 73.142H413.417V96.993C413.417 101.384 416.976 104.943 421.367 104.943C425.759 104.943 429.317 101.383 429.317 96.993V73.143H474.899V188.157C474.899 236.379 435.667 275.61 387.446 275.61H327.554V227.908H389.566C411.486 227.908 429.318 210.076 429.318 188.156V139.394C429.318 135.003 425.759 131.444 421.368 131.444C416.976 131.444 413.418 135.004 413.418 139.394V188.156C413.418 201.308 402.718 212.007 389.567 212.007H327.555V200.877C327.555 196.486 323.996 192.927 319.605 192.927H294.164C289.772 192.927 286.214 196.487 286.214 200.877V212.007H268.19V155.825H276.721C280.192 168.045 291.444 177.026 304.761 177.026C320.834 177.026 333.912 163.949 333.912 147.875C333.912 131.801 320.834 118.724 304.761 118.724C291.444 118.724 280.191 127.705 276.721 139.925H243.758C240.287 127.705 229.035 118.724 215.718 118.724C199.645 118.724 186.567 131.801 186.567 147.875C186.567 163.949 199.645 177.026 215.718 177.026C229.035 177.026 240.288 168.045 243.758 155.825H252.289V212.007H234.268V200.877C234.268 196.486 230.709 192.927 226.318 192.927H200.877C196.485 192.927 192.927 196.487 192.927 200.877V212.007H126.674C69.684 212.007 23.32 258.371 23.32 315.361V351.402C23.32 355.793 26.879 359.352 31.27 359.352C35.661 359.352 39.22 355.792 39.22 351.402V315.361C39.22 267.139 78.452 227.908 126.673 227.908H192.926V275.61H124.553C102.633 275.61 84.801 293.442 84.801 315.362V436.737H39.222V393.805C39.222 389.414 35.663 385.855 31.272 385.855C26.881 385.855 23.322 389.415 23.322 393.805V436.737H14.312C9.92 436.737 6.362 440.297 6.362 444.687V470.128C6.362 474.519 9.921 478.078 14.312 478.078H23.322V501.929C23.322 506.32 26.881 509.879 31.272 509.879H92.754C97.146 509.879 100.704 506.319 100.704 501.929V478.078H107.594C111.986 478.078 115.544 474.518 115.544 470.128V444.687C115.544 440.296 111.985 436.737 107.594 436.737H100.704V315.362C100.704 302.21 111.404 291.511 124.555 291.511H192.928V302.641C192.928 307.032 196.487 310.591 200.878 310.591H226.319C230.711 310.591 234.269 307.031 234.269 302.641V291.511H286.211V302.641C286.211 307.032 289.77 310.591 294.161 310.591H319.602C323.994 310.591 327.552 307.031 327.552 302.641V291.511H387.444C444.434 291.511 490.798 245.147 490.798 188.157V73.143H497.688C502.08 73.143 505.638 69.583 505.638 65.193V39.752C505.64 35.361 502.081 31.801 497.689 31.801ZM304.762 134.625C312.069 134.625 318.013 140.569 318.013 147.876C318.013 155.183 312.069 161.127 304.762 161.127C297.455 161.127 291.511 155.183 291.511 147.876C291.511 140.569 297.455 134.625 304.762 134.625ZM215.718 161.126C208.411 161.126 202.467 155.182 202.467 147.875C202.467 140.568 208.411 134.624 215.718 134.624C223.025 134.624 228.969 140.568 228.969 147.875C228.969 155.182 223.025 161.126 215.718 161.126ZM22.261 452.638H99.644V462.178H22.261V452.638ZM84.803 493.979H39.222V478.078H84.804L84.803 493.979ZM218.369 294.692H208.829V208.829H218.369V294.692ZM234.269 275.611V227.909H286.211V275.611H234.269ZM311.652 294.692H302.112V208.829H311.652V294.692ZM429.317 15.901H474.899V31.802H429.317V15.901ZM412.356 47.702H489.739V57.242H412.356V47.702Z" fill="black"/>
<path d="M290.756 369.989C286.968 372.211 285.7 377.082 287.921 380.869C310.414 419.209 313.772 435.982 313.772 442.567C313.772 472.085 289.758 496.099 260.24 496.099C230.722 496.099 206.708 472.085 206.708 442.567C206.708 419.703 240.907 365.549 260.222 337.639C263.045 341.728 266.614 346.988 270.554 352.994C272.962 356.666 277.892 357.69 281.563 355.282C285.235 352.875 286.259 347.945 283.851 344.273C274.244 329.625 266.98 319.594 266.676 319.174C263.554 314.87 256.927 314.87 253.804 319.174C247.357 328.065 190.808 407.057 190.808 442.567C190.808 480.853 221.955 512 260.241 512C298.527 512 329.674 480.853 329.674 442.567C329.674 427.794 320.504 404.981 301.637 372.824C299.413 369.036 294.542 367.767 290.756 369.989Z" fill="black"/>
</svg>
