<?xml version="1.0" encoding="iso-8859-1"?>
<!-- Uploaded to: SVG Repo, www.svgrepo.com, Generator: SVG Repo Mixer Tools -->
<svg version="1.1" id="Layer_1" xmlns="http://www.w3.org/2000/svg" xmlns:xlink="http://www.w3.org/1999/xlink" 
	 viewBox="0 0 512 512" xml:space="preserve">
<path style="fill:#F7D04A;" d="M421.366,7.95v180.207c0,17.535-14.266,31.801-31.801,31.801h-262.89
	c-52.606,0-95.404,42.798-95.404,95.404V501.93h61.482V315.362c0-17.535,14.266-31.801,31.801-31.801h262.89
	c52.606,0,95.404-42.798,95.404-95.404V7.95H421.366z"/>
<g>
	<rect x="200.878" y="200.878" style="fill:#EB6836;" width="25.441" height="101.764"/>
	<rect x="294.161" y="200.878" style="fill:#EB6836;" width="25.441" height="101.764"/>
</g>
<g>
	<rect x="200.878" y="200.878" style="fill:#FD9D7E;" width="25.441" height="21.201"/>
	<rect x="294.161" y="200.878" style="fill:#FD9D7E;" width="25.441" height="21.201"/>
	<rect x="200.878" y="281.441" style="fill:#FD9D7E;" width="25.441" height="21.201"/>
	<rect x="294.161" y="281.441" style="fill:#FD9D7E;" width="25.441" height="21.201"/>
</g>
<g>
	<rect x="404.406" y="39.752" style="fill:#EB6836;" width="93.284" height="25.441"/>
	<rect x="14.311" y="444.687" style="fill:#EB6836;" width="93.284" height="25.441"/>
</g>
<g>
	<rect x="86.393" y="444.687" style="fill:#FD9D7E;" width="21.201" height="25.441"/>
	<rect x="14.311" y="444.687" style="fill:#FD9D7E;" width="21.201" height="25.441"/>
	<rect x="476.489" y="39.752" style="fill:#FD9D7E;" width="21.201" height="25.441"/>
	<rect x="404.406" y="39.752" style="fill:#FD9D7E;" width="21.201" height="25.441"/>
</g>
<g>
	<circle style="fill:#EB6836;" cx="304.762" cy="147.876" r="21.201"/>
	<circle style="fill:#EB6836;" cx="215.718" cy="147.876" r="21.201"/>
</g>
<path style="fill:#62C9CC;" d="M198.758,442.567c0-33.956,61.482-118.725,61.482-118.725s61.482,84.768,61.482,118.725
	s-27.526,61.482-61.482,61.482S198.758,476.524,198.758,442.567z"/>
<path style="fill:#50A9A9;" d="M281.441,487.089c-33.955,0-61.482-27.527-61.482-61.482c0-22.474,26.93-67.202,45.145-94.884
	c-3.031-4.353-4.863-6.88-4.863-6.88s-61.482,84.769-61.482,118.725s27.527,61.482,61.482,61.482
	c19.435,0,36.752-9.027,48.019-23.107C300.154,484.878,291.057,487.089,281.441,487.089z"/>
<g>
	<circle style="fill:#D4F2E8;" cx="268.72" cy="465.888" r="19.081"/>
	<circle style="fill:#D4F2E8;" cx="285.681" cy="423.487" r="12.72"/>
</g>
<path d="M497.689,31.801h-6.89V7.95c0-4.391-3.559-7.95-7.95-7.95h-61.482c-4.392,0-7.95,3.56-7.95,7.95v23.851h-9.01
	c-4.392,0-7.95,3.56-7.95,7.95v25.441c0,4.391,3.559,7.95,7.95,7.95h9.01v23.851c0,4.391,3.559,7.95,7.95,7.95
	c4.392,0,7.95-3.56,7.95-7.95V73.143h45.582v115.014c0,48.222-39.232,87.453-87.453,87.453h-59.892v-47.702h62.012
	c21.92,0,39.752-17.832,39.752-39.752v-48.762c0-4.391-3.559-7.95-7.95-7.95c-4.392,0-7.95,3.56-7.95,7.95v48.762
	c0,13.152-10.7,23.851-23.851,23.851h-62.012v-11.13c0-4.391-3.559-7.95-7.95-7.95h-25.441c-4.392,0-7.95,3.56-7.95,7.95v11.13
	H268.19v-56.182h8.531c3.471,12.22,14.723,21.201,28.04,21.201c16.073,0,29.151-13.077,29.151-29.151s-13.078-29.151-29.151-29.151
	c-13.317,0-24.57,8.981-28.04,21.201h-32.963c-3.471-12.22-14.723-21.201-28.04-21.201c-16.073,0-29.151,13.077-29.151,29.151
	s13.078,29.151,29.151,29.151c13.317,0,24.57-8.981,28.04-21.201h8.531v56.182h-18.021v-11.13c0-4.391-3.559-7.95-7.95-7.95h-25.441
	c-4.392,0-7.95,3.56-7.95,7.95v11.13h-66.253c-56.99,0-103.354,46.364-103.354,103.354v36.041c0,4.391,3.559,7.95,7.95,7.95
	s7.95-3.56,7.95-7.95v-36.041c0-48.222,39.232-87.453,87.453-87.453h66.253v47.702h-68.373c-21.92,0-39.752,17.832-39.752,39.752
	v121.375H39.222v-42.932c0-4.391-3.559-7.95-7.95-7.95s-7.95,3.56-7.95,7.95v42.932h-9.01c-4.392,0-7.95,3.56-7.95,7.95v25.441
	c0,4.391,3.559,7.95,7.95,7.95h9.01v23.851c0,4.391,3.559,7.95,7.95,7.95h61.482c4.392,0,7.95-3.56,7.95-7.95v-23.851h6.89
	c4.392,0,7.95-3.56,7.95-7.95v-25.441c0-4.391-3.559-7.95-7.95-7.95h-6.89V315.362c0-13.152,10.7-23.851,23.851-23.851h68.373v11.13
	c0,4.391,3.559,7.95,7.95,7.95h25.441c4.392,0,7.95-3.56,7.95-7.95v-11.13h51.942v11.13c0,4.391,3.559,7.95,7.95,7.95h25.441
	c4.392,0,7.95-3.56,7.95-7.95v-11.13h59.892c56.99,0,103.354-46.364,103.354-103.354V73.143h6.89c4.392,0,7.95-3.56,7.95-7.95
	V39.752C505.64,35.361,502.081,31.801,497.689,31.801z M304.762,134.625c7.307,0,13.251,5.944,13.251,13.251
	s-5.944,13.251-13.251,13.251c-7.307,0-13.251-5.944-13.251-13.251S297.455,134.625,304.762,134.625z M215.718,161.126
	c-7.307,0-13.251-5.944-13.251-13.251s5.944-13.251,13.251-13.251s13.251,5.944,13.251,13.251S223.025,161.126,215.718,161.126z
	 M22.261,452.638h77.383v9.54H22.261V452.638z M84.803,493.979H39.222v-15.901h45.582V493.979z M218.369,294.692h-9.54v-85.863h9.54
	V294.692z M234.269,275.611v-47.702h51.942v47.702H234.269z M311.652,294.692h-9.54v-85.863h9.54V294.692z M429.317,15.901h45.582
	v15.901h-45.582V15.901z M412.356,47.702h77.383v9.54h-77.383V47.702z"/>
<path d="M290.756,369.989c-3.788,2.222-5.056,7.093-2.835,10.88c22.493,38.34,25.851,55.113,25.851,61.698
	c0,29.518-24.014,53.532-53.532,53.532s-53.532-24.014-53.532-53.532c0-22.864,34.199-77.018,53.514-104.928
	c2.823,4.089,6.392,9.349,10.332,15.355c2.408,3.672,7.338,4.696,11.009,2.288c3.672-2.407,4.696-7.337,2.288-11.009
	c-9.607-14.648-16.871-24.679-17.175-25.099c-3.122-4.304-9.749-4.304-12.872,0c-6.447,8.891-62.996,87.883-62.996,123.393
	c0,38.286,31.147,69.433,69.433,69.433s69.433-31.147,69.433-69.433c0-14.773-9.17-37.586-28.037-69.743
	C299.413,369.036,294.542,367.767,290.756,369.989z"/>
</svg>