<svg width="952" height="633" viewBox="0 0 952 633" fill="none" xmlns="http://www.w3.org/2000/svg">
<g clip-path="url(#clip0_3_2)">
<path d="M341.208 363.815C373.808 306.47 435.991 262.438 501.817 266.68C453.262 319.482 424.948 387.756 421.885 459.424C420.805 487.068 422.481 517.926 404.126 538.626C392.706 551.505 375.25 557.743 358.086 559.052C340.922 560.36 323.762 557.259 306.827 554.171L302.719 555.432C301.155 489.487 308.609 421.16 341.208 363.815Z" fill="#F0F0F0"/>
<path d="M501.915 268.061C453.237 291.494 411.731 330.63 386.251 378.36C380.742 388.679 376.052 399.627 374.006 411.201C371.96 422.781 373.389 433.804 377.345 444.803C380.96 454.858 385.824 464.724 386.932 475.483C388.101 486.823 383.928 497.426 376.418 505.842C367.228 516.138 354.887 522.519 342.601 528.339C328.96 534.801 314.689 541.297 305.028 553.357C303.857 554.819 301.658 552.917 302.827 551.458C319.636 530.474 348.41 526.53 368.363 509.627C377.673 501.74 384.663 490.999 384.222 478.413C383.836 467.408 378.83 457.229 375.081 447.08C371.144 436.424 369.181 425.709 370.593 414.347C372.037 402.724 376.309 391.571 381.53 381.156C393.304 357.668 409.416 336.105 427.875 317.465C449.088 296.039 473.811 278.399 500.973 265.309C502.655 264.5 503.585 267.256 501.915 268.061Z" fill="white"/>
<path d="M393.715 362.409C386.252 356.952 380.972 349.021 378.818 340.031C376.664 331.041 377.775 321.578 381.954 313.332C382.805 311.666 385.433 312.911 384.581 314.578C380.676 322.25 379.641 331.065 381.664 339.432C383.688 347.8 388.635 355.168 395.614 360.208C397.13 361.305 395.221 363.5 393.715 362.409Z" fill="white"/>
<path d="M374.84 439.946C393.539 437.214 410.521 427.534 422.401 412.837C423.576 411.38 425.776 413.281 424.601 414.737C412.211 430.008 394.518 440.045 375.053 442.846C373.197 443.111 372.995 440.21 374.84 439.946Z" fill="white"/>
<path d="M450.525 299.616C452.972 302.329 456.055 304.391 459.497 305.618C462.938 306.845 466.631 307.198 470.243 306.645C472.094 306.356 472.295 309.258 470.455 309.545C466.462 310.137 462.385 309.742 458.579 308.395C454.774 307.048 451.356 304.789 448.625 301.817C448.344 301.558 448.172 301.202 448.144 300.821C448.116 300.44 448.234 300.063 448.475 299.766C448.728 299.476 449.085 299.298 449.469 299.27C449.853 299.241 450.232 299.366 450.525 299.616Z" fill="white"/>
<path d="M632.791 447.583C631.64 447.796 630.489 448.01 629.328 448.245C613.871 451.194 598.68 455.393 583.903 460.802C582.754 461.202 581.596 461.625 580.461 462.057C544.999 475.467 512.336 495.345 484.131 520.679C472.917 530.77 462.487 541.7 452.931 553.374C439.735 569.496 426.71 588.027 409.466 598.54C407.679 599.657 405.825 600.662 403.914 601.549L304.576 560.346C304.397 560.139 304.208 559.954 304.028 559.746L299.987 558.283C300.438 557.646 300.919 556.996 301.37 556.359C301.63 555.989 301.912 555.628 302.172 555.257C302.352 555.013 302.533 554.77 302.682 554.539C302.742 554.458 302.803 554.377 302.853 554.318C303.002 554.088 303.165 553.889 303.304 553.682C305.984 550.038 308.694 546.408 311.434 542.789C311.444 542.767 311.444 542.767 311.475 542.753C332.426 515.237 355.858 489.228 382.492 467.602C383.294 466.952 384.104 466.278 384.95 465.647C397.01 455.966 409.841 447.286 423.315 439.695C430.706 435.563 438.302 431.807 446.073 428.442C466.168 419.787 487.5 414.346 509.287 412.32C552.718 408.287 596.956 418.189 630.266 445.473C631.118 446.172 631.949 446.862 632.791 447.583Z" fill="#F0F0F0"/>
<path d="M632.045 448.751C579.07 438.154 522.366 444.413 473.286 467.182C462.674 472.104 452.339 478.021 443.736 486.032C435.13 494.045 429.635 503.707 426.171 514.87C423.004 525.076 420.947 535.881 415.355 545.139C409.46 554.897 399.745 560.851 388.681 563.048C375.145 565.737 361.449 563.401 348.136 560.651C333.354 557.598 318.048 554.192 303.073 558.005C301.258 558.467 300.648 555.624 302.459 555.163C328.514 548.53 353.863 562.704 379.971 561.221C392.154 560.529 404.202 556.161 411.427 545.847C417.745 536.828 419.876 525.687 422.993 515.326C426.266 504.447 431.149 494.71 439.117 486.488C447.268 478.077 457.394 471.744 467.833 466.572C491.374 454.907 517.222 447.391 543.183 443.621C573.021 439.285 603.381 440.086 632.949 445.988C634.779 446.354 633.863 449.115 632.045 448.751Z" fill="white"/>
<path d="M488.849 458.939C486.176 450.089 486.735 440.578 490.428 432.103C494.12 423.628 500.705 416.741 509.006 412.673C510.689 411.855 512.038 414.431 510.353 415.25C502.616 419.024 496.483 425.44 493.061 433.339C489.638 441.238 489.152 450.1 491.691 458.326C492.24 460.114 489.395 460.717 488.849 458.939Z" fill="white"/>
<path d="M427.095 509.484C443.671 518.561 463.058 521.057 481.391 516.474C483.208 516.018 483.819 518.861 482.005 519.316C462.918 524.049 442.747 521.411 425.52 511.928C423.878 511.023 425.463 508.584 427.095 509.484Z" fill="white"/>
<path d="M572.014 443.006C572.335 446.646 573.555 450.149 575.564 453.2C577.573 456.252 580.309 458.757 583.525 460.49C585.177 461.374 583.591 463.811 581.95 462.933C578.405 461.002 575.387 458.232 573.16 454.865C570.932 451.498 569.563 447.637 569.172 443.619C569.104 443.244 569.181 442.856 569.388 442.535C569.595 442.214 569.916 441.984 570.287 441.892C570.663 441.813 571.056 441.885 571.379 442.094C571.703 442.302 571.931 442.63 572.014 443.006Z" fill="white"/>
<path d="M443.559 515.561C429.647 448.295 412.257 425.868 412.257 425.868L405.614 420.716L397.624 414.51L397.663 413.712L395.768 413.068L395.323 412.722L394.594 412.162L394.476 412.288L394.229 412.545L358.076 400.256L312.211 384.677L290.972 357.071C287.513 352.575 283.06 348.941 277.962 346.454C272.863 343.967 267.258 342.695 261.586 342.737L193.756 343.239C184.585 343.307 175.771 346.803 169.047 353.04L124.464 394.394L54.9946 427.572L54.8773 427.455L54.1478 427.976L43.4142 433.108L43.8572 435.414L37.2137 440.208C37.2137 440.208 19.8237 461.076 5.91169 523.667C2.37262 539.593 0.630557 573.756 0.00176703 615.855C-0.029817 617.984 0.362285 620.099 1.15526 622.076C1.94824 624.053 3.12628 625.852 4.62088 627.369C6.11549 628.887 7.89683 630.092 9.86135 630.915C11.8259 631.737 13.9343 632.162 16.0642 632.162H387.112L433.423 632.162C435.552 632.161 437.659 631.737 439.622 630.915C441.585 630.094 443.366 628.89 444.86 627.374C446.354 625.859 447.533 624.062 448.327 622.087C449.121 620.112 449.515 618 449.486 615.871C448.872 570.062 447.13 532.833 443.559 515.561Z" fill="#3F3D56"/>
<path d="M491.166 58.6623C476.73 58.6623 462.886 64.3969 452.678 74.6046C442.47 84.8124 436.735 98.6571 436.735 113.093C436.735 127.529 442.47 141.374 452.678 151.581C462.886 161.789 476.73 167.524 491.166 167.524H896.805C911.241 167.524 925.085 161.789 935.293 151.581C945.501 141.374 951.235 127.529 951.235 113.093C951.235 98.6571 945.501 84.8124 935.293 74.6046C925.085 64.3969 911.241 58.6623 896.805 58.6623H491.166Z" fill="#E5E5E5"/>
<path d="M491.166 69.678C479.652 69.678 468.609 74.252 460.467 82.3939C452.325 90.5358 447.751 101.579 447.751 113.093C447.751 124.607 452.325 135.65 460.467 143.792C468.609 151.934 479.652 156.508 491.166 156.508H896.805C908.319 156.508 919.362 151.934 927.504 143.792C935.646 135.65 940.22 124.607 940.22 113.093C940.22 101.579 935.646 90.5358 927.504 82.3939C919.362 74.252 908.319 69.678 896.805 69.678H491.166Z" fill="white"/>
<path d="M238.323 317.255C287.4 317.255 327.186 277.47 327.186 228.392C327.186 179.314 287.4 139.529 238.323 139.529C189.245 139.529 149.46 179.314 149.46 228.392C149.46 277.47 189.245 317.255 238.323 317.255Z" fill="#9E616A"/>
<path d="M215.59 312.904C215.21 312.068 214.832 311.229 214.454 310.388C214.6 310.392 214.744 310.413 214.889 310.417L215.59 312.904Z" fill="#2F2E41"/>
<path d="M146.989 143.57C151.483 139.985 156.736 136.686 162.483 136.871C168.229 137.057 174.056 142.247 172.865 147.871C183.42 129.183 200.22 114.81 220.316 107.274C240.412 99.7389 262.521 99.5226 282.761 106.663C297.042 111.702 311.048 121.783 314.329 136.568C315.171 140.363 315.352 144.524 317.721 147.606C320.709 151.492 326.426 152.371 331.133 151.004C331.18 150.991 331.227 150.977 331.274 150.963C332.069 150.691 332.928 150.664 333.738 150.886C334.549 151.108 335.274 151.567 335.821 152.206C336.367 152.844 336.709 153.632 336.803 154.467C336.897 155.302 336.738 156.146 336.347 156.89L332.306 164.426C337.4 165.562 342.693 165.449 347.734 164.098C348.572 163.878 349.457 163.923 350.268 164.226C351.079 164.53 351.776 165.076 352.264 165.791C352.752 166.506 353.007 167.355 352.993 168.221C352.98 169.086 352.699 169.927 352.189 170.626C338.864 188.92 316.603 200.734 293.886 200.595C277.74 200.496 261.428 194.932 245.714 198.645C239.635 200.081 233.955 202.86 229.09 206.778C224.225 210.696 220.299 215.654 217.6 221.287C214.901 226.92 213.498 233.086 213.492 239.333C213.487 245.579 214.881 251.747 217.57 257.385C212.743 252.105 203.411 253.355 198.473 258.532C193.535 263.709 192.257 271.436 192.755 278.573C193.515 289.489 197.792 299.774 202.301 309.785C164.5 308.595 128.746 282.078 116.711 246.213C104.626 210.198 117.292 167.261 146.989 143.57Z" fill="#2F2E41"/>
<path opacity="0.2" d="M87.4641 495.253L112.388 630.86L127.343 632.162L87.4641 495.253Z" fill="black"/>
<path opacity="0.2" d="M362.007 485.026L337.083 630.762L322.128 632.162L362.007 485.026Z" fill="black"/>
<path d="M168.247 97.932C163.468 99.9275 158.482 97.7406 156.391 92.7324C154.267 87.6477 156.25 82.486 161.106 80.4585C165.962 78.4309 170.859 80.6231 173.017 85.7899C175.142 90.8791 173.181 95.872 168.247 97.932ZM159.093 70.4501L155.293 72.0367C154.344 72.4283 153.282 72.4495 152.318 72.0959C151.354 71.7423 150.558 71.0397 150.087 70.1272L149.899 69.7596C145.811 62.3862 145.343 53.4249 148.515 43.1387C151.454 33.9113 152.675 27.4218 150.22 21.5427C147.382 14.7452 141.321 12.6159 133.592 15.7005C130.594 16.9522 129.64 16.9323 127.281 19.2725C126.768 19.7877 126.156 20.1943 125.482 20.4681C124.809 20.7419 124.087 20.8772 123.36 20.8659C122.657 20.8576 121.963 20.7079 121.319 20.4256C120.675 20.1433 120.095 19.7343 119.613 19.2229C118.683 18.2374 118.163 16.936 118.156 15.5815C118.149 14.227 118.657 12.9204 119.576 11.9256C123.541 7.77482 128.324 4.49104 133.622 2.28146C150.228 -4.65283 158.588 5.58465 162.413 14.7462C166.155 23.7073 164.05 32.0217 160.668 42.7897C157.834 51.7372 157.999 58.3672 161.219 64.9594C161.451 65.4578 161.58 65.998 161.599 66.5476C161.617 67.0972 161.524 67.6449 161.326 68.1577C161.127 68.6705 160.827 69.1379 160.444 69.5319C160.06 69.9258 159.6 70.2381 159.093 70.4501Z" fill="#4D908E"/>
<path d="M580.766 139.053H500.06C499.803 139.054 499.549 139.005 499.312 138.909C499.074 138.812 498.858 138.669 498.676 138.488C498.494 138.307 498.35 138.093 498.252 137.856C498.153 137.619 498.102 137.365 498.102 137.109C498.102 136.852 498.153 136.599 498.252 136.362C498.35 136.125 498.494 135.91 498.676 135.73C498.858 135.549 499.074 135.406 499.312 135.309C499.549 135.212 499.803 135.163 500.06 135.165H580.766C581.28 135.168 581.771 135.375 582.133 135.739C582.494 136.103 582.697 136.595 582.697 137.109C582.697 137.622 582.494 138.115 582.133 138.479C581.771 138.843 581.28 139.049 580.766 139.053Z" fill="#4D908E"/>
<path d="M683.148 139.701H602.441C602.185 139.702 601.93 139.653 601.693 139.557C601.456 139.46 601.24 139.317 601.058 139.136C600.876 138.955 600.732 138.74 600.633 138.504C600.535 138.267 600.484 138.013 600.484 137.757C600.484 137.5 600.535 137.246 600.633 137.01C600.732 136.773 600.876 136.558 601.058 136.377C601.24 136.197 601.456 136.054 601.693 135.957C601.93 135.86 602.185 135.811 602.441 135.813H683.148C683.405 135.811 683.659 135.86 683.896 135.957C684.134 136.054 684.349 136.197 684.531 136.377C684.713 136.558 684.858 136.773 684.956 137.01C685.055 137.246 685.105 137.5 685.105 137.757C685.105 138.013 685.055 138.267 684.956 138.504C684.858 138.74 684.713 138.955 684.531 139.136C684.349 139.317 684.134 139.46 683.896 139.557C683.659 139.653 683.405 139.702 683.148 139.701Z" fill="#4D908E"/>
<path d="M785.53 140.349H704.823C704.309 140.345 703.818 140.139 703.457 139.775C703.095 139.41 702.892 138.918 702.892 138.405C702.892 137.891 703.095 137.399 703.457 137.035C703.818 136.671 704.309 136.464 704.823 136.461H785.53C785.786 136.459 786.04 136.508 786.278 136.605C786.515 136.702 786.731 136.845 786.913 137.025C787.095 137.206 787.239 137.421 787.338 137.658C787.436 137.894 787.487 138.148 787.487 138.405C787.487 138.661 787.436 138.915 787.338 139.152C787.239 139.388 787.095 139.603 786.913 139.784C786.731 139.965 786.515 140.108 786.278 140.205C786.04 140.301 785.786 140.35 785.53 140.349Z" fill="#4D908E"/>
<path d="M887.911 140.997H807.204C806.691 140.993 806.2 140.787 805.838 140.423C805.477 140.058 805.274 139.566 805.274 139.053C805.274 138.539 805.477 138.047 805.838 137.683C806.2 137.319 806.691 137.112 807.204 137.109H887.911C888.425 137.112 888.916 137.319 889.278 137.683C889.639 138.047 889.842 138.539 889.842 139.053C889.842 139.566 889.639 140.058 889.278 140.423C888.916 140.787 888.425 140.993 887.911 140.997Z" fill="#4D908E"/>
<path d="M540.235 121.162C548.52 121.162 555.235 114.447 555.235 106.162C555.235 97.878 548.52 91.1622 540.235 91.1622C531.951 91.1622 525.235 97.878 525.235 106.162C525.235 114.447 531.951 121.162 540.235 121.162Z" fill="#4D908E"/>
<path d="M643.235 121.162C651.52 121.162 658.235 114.447 658.235 106.162C658.235 97.878 651.52 91.1622 643.235 91.1622C634.951 91.1622 628.235 97.878 628.235 106.162C628.235 114.447 634.951 121.162 643.235 121.162Z" fill="#4D908E"/>
<path d="M746.235 121.162C754.52 121.162 761.235 114.447 761.235 106.162C761.235 97.878 754.52 91.1622 746.235 91.1622C737.951 91.1622 731.235 97.878 731.235 106.162C731.235 114.447 737.951 121.162 746.235 121.162Z" fill="#4D908E"/>
<path d="M849.235 121.162C857.52 121.162 864.235 114.447 864.235 106.162C864.235 97.878 857.52 91.1622 849.235 91.1622C840.951 91.1622 834.235 97.878 834.235 106.162C834.235 114.447 840.951 121.162 849.235 121.162Z" fill="#4D908E"/>
</g>
<defs>
<clipPath id="clip0_3_2">
<rect width="951.235" height="632.162" fill="white"/>
</clipPath>
</defs>
</svg>
